<?xml version="1.0" encoding="utf-8"?>
<!-- Generator: Adobe Illustrator 16.0.4, SVG Export Plug-In . SVG Version: 6.00 Build 0)  -->
<!DOCTYPE svg PUBLIC "-//W3C//DTD SVG 1.1//EN" "http://www.w3.org/Graphics/SVG/1.1/DTD/svg11.dtd">
<svg version="1.1" id="Layer_1" xmlns="http://www.w3.org/2000/svg" xmlns:xlink="http://www.w3.org/1999/xlink" x="0px" y="0px"
	 width="32px" height="32px" viewBox="0 0 32 32" enable-background="new 0 0 32 32" xml:space="preserve">
<g>
	<path fill="#CCCCCC" d="M25.554,10.509h-1.91V9.593c0.866-0.2,1.91-1.389,1.91-2.746c0-2.019-1.716-3.661-3.822-3.661
		c-0.973,0-1.856,0.349-2.531,0.921c-0.741-0.579-1.683-0.921-2.71-0.921c-0.943,0-1.815,0.292-2.527,0.784
		c-0.59-0.487-1.365-0.784-2.208-0.784c-1.021,0-1.935,0.435-2.555,1.116C8.5,3.615,7.526,3.187,6.446,3.187
		c-2.107,0-3.821,1.642-3.821,3.661c0,0.927,0.364,1.772,0.956,2.42c0,0.011,0,0.023,0,0.041v3.088c0,1.516,1.284,2.746,2.865,2.746
		v12.755c0,0.504,0.43,0.916,0.956,0.916h15.286c0.525,0,0.956-0.412,0.956-0.916v-4.576h1.91c2.107,0,3.821-1.642,3.821-3.661
		v-5.491C29.375,12.15,27.661,10.509,25.554,10.509z M20.287,18.744c-0.095,0-0.179-0.034-0.257-0.079
		c-0.131-0.079-0.209-0.229-0.209-0.389v-2.735c0-0.251,0.215-0.457,0.479-0.457c0.262,0,0.477,0.206,0.477,0.457v2.751l0,0
		C20.776,18.578,20.55,18.744,20.287,18.744z M20.718,14.42c-0.072,0.104-0.179,0.172-0.305,0.2c-0.126,0.022-0.257,0-0.358-0.064
		c-0.106-0.067-0.179-0.17-0.209-0.292c-0.023-0.119,0-0.246,0.066-0.343c0.071-0.103,0.178-0.171,0.304-0.2
		c0.126-0.023,0.257,0,0.359,0.063c0.106,0.069,0.177,0.171,0.207,0.292C20.812,14.192,20.789,14.318,20.718,14.42z M21.731,10.509
		v1.83h-7.63c-0.006-0.246-0.214-0.446-0.478-0.446c-0.263,0-0.472,0.2-0.477,0.446h-4.79v-0.515v-1.807
		c0.389-0.218,0.734-0.492,1.016-0.818c0.072-0.086,0.144-0.171,0.209-0.263C9.671,9.005,9.76,9.074,9.855,9.13
		c0.543,0.349,1.194,0.556,1.892,0.556c0.384,0,0.753-0.063,1.094-0.172c0.763,1.156,2.107,1.928,3.642,1.928
		c1.314,0,2.489-0.566,3.278-1.453c0.342-0.383,0.609-0.824,0.782-1.311h1.188V10.509L21.731,10.509z M23.56,7.374
		c-0.149-0.314-0.484-0.526-0.872-0.526h-2.866h-0.417c0,0-0.519-0.04-0.519,0.469c0,0.509-0.174,0.979-0.467,1.356
		c-0.436,0.566-1.141,0.937-1.935,0.937c-0.889,0-1.665-0.463-2.077-1.155c-0.097-0.155-0.168-0.321-0.221-0.492
		c-0.007-0.035-0.018-0.063-0.024-0.092c-0.119-0.337-0.447-0.583-0.842-0.583c-0.232,0-0.446,0.086-0.608,0.229
		c0,0,0,0-0.006,0.005c-0.144,0.12-0.317,0.211-0.501,0.269c-0.144,0.045-0.299,0.068-0.459,0.068c-0.448,0-0.878-0.229-1.123-0.492
		c-0.597-0.652-1.415-0.389-1.773-0.315C8.49,7.126,8.12,7.721,8.12,7.721C8.054,7.841,7.971,7.95,7.881,8.053
		C7.529,8.436,7.016,8.682,6.442,8.682v1.831v1.316v1.488c-0.526,0-0.956-0.412-0.956-0.916v-2.002V8.436
		c-0.459-0.257-0.8-0.692-0.914-1.201c-0.03-0.12-0.041-0.251-0.041-0.383c0-1.007,0.859-1.831,1.91-1.831
		c0.704,0,1.391,0.44,1.796,0.881c0.407,0.44,1.595,0.44,2.025,0c0.406-0.418,0.854-0.881,1.481-0.881
		c0.359,0,0.693,0.126,0.949,0.332c0.115,0.091,0.216,0.2,0.295,0.32c0.064,0.103,0.119,0.24,0.183,0.332
		c0.162,0.194,0.389,0.314,0.67,0.314c0.263,0,0.496-0.108,0.656-0.286c0.035-0.04,0.071-0.086,0.101-0.132
		c0.12-0.143,0.25-0.274,0.4-0.388c0.407-0.309,0.926-0.492,1.481-0.492c0.633,0,1.206,0.234,1.636,0.624
		c0.102,0.091,0.399,0.257,0.788,0.292c0.27,0.023,0.364,0.018,0.49,0c0.614-0.074,0.86-0.268,0.979-0.377
		c0.348-0.331,0.824-0.538,1.351-0.538c1.052,0,1.909,0.824,1.909,1.831C23.644,7.03,23.613,7.208,23.56,7.374z M27.464,19.66
		c0,1.013-0.853,1.83-1.908,1.83h-1.912v-9.151h1.911c1.055,0,1.909,0.818,1.909,1.83V19.66L27.464,19.66z"/>
	<ellipse fill="#CCCCCC" cx="10.758" cy="10.977" rx="0.477" ry="0.458"/>
	<ellipse fill="#CCCCCC" cx="20.311" cy="10.977" rx="0.479" ry="0.458"/>
</g>
</svg>
